<?xml version="1.0" standalone="no"?>
<!DOCTYPE svg PUBLIC "-//W3C//DTD SVG 1.1//EN" "http://www.w3.org/Graphics/SVG/1.1/DTD/svg11.dtd" >
<!--
2013-9-30: Created.
-->
<svg>
<metadata>
Created by iconfont
</metadata>
<defs>

<font id="iconfont" horiz-adv-x="1024" >
  <font-face
    font-family="iconfont"
    font-weight="500"
    font-stretch="normal"
    units-per-em="1024"
    ascent="896"
    descent="-128"
  />
    <missing-glyph />
    
    <glyph glyph-name="top" unicode="&#58893;" d="M542.8 682.44c-5.525 5.526-11.665 8.187-17.804 9.62-4.093 2.046-8.903 2.762-13.712 2.762-4.81 0-9.62-0.716-13.712-2.762-6.14-1.33-12.382-4.094-17.805-9.62l-336.15-336.046c-15.041-15.042-15.041-38.373 0-53.517 15.043-15.043 38.374-15.043 53.519 0L476.9 572.642v-598.007c0-19.237 15.043-34.28 34.28-34.28 19.238 0 34.28 15.043 34.28 34.28V572.642l279.766-279.765c15.042-15.043 38.373-15.043 53.518 0 15.042 15.042 15.042 38.373 0 53.517L542.8 682.441zM922.747 831.943H99.72c-19.238 0-34.28-15.042-34.28-34.28 0-19.237 15.042-34.28 34.28-34.28h822.925c19.237 0 34.28 15.043 34.28 34.28 0.102 19.136-15.043 34.28-34.178 34.28z"  horiz-adv-x="1024" />

    
    <glyph glyph-name="shizhong" unicode="&#58973;" d="M511.268848 812c-282.349623 0-511.24787-228.89927-511.24787-511.288802 0-282.347576 228.89927-511.24787 511.24787-511.24787 282.388509 0 511.289825 228.901317 511.289825 511.24787C1022.558673 583.101753 793.657356 812 511.268848 812zM511.268848-169.660706c-259.786745 0-470.371904 210.585159-470.371904 470.371904 0 259.786745 210.585159 470.371904 470.371904 470.371904 259.785721 0 470.412836-210.585159 470.412836-470.371904C981.681684 40.924453 771.054569-169.660706 511.268848-169.660706zM511.268848 280.273726l-265.865183 0 0-40.916898 306.781058 0L552.184723 668.80774l-40.915875 0L511.268848 280.273726z"  horiz-adv-x="1024" />

    
    <glyph glyph-name="love" unicode="&#58905;" d="M956.66594 514.771369c0 141.552923-114.736161 256.372995-256.236895 256.372995-75.223239 0-142.868895-32.501228-189.771111-84.114746-46.888913 51.613518-114.527406 84.114746-189.762925 84.114746-141.501758 0-256.226662-114.820072-256.226662-256.372995 0-75.348082 32.457226-143.025461 84.069721-189.927677l-0.410346 0 278.728142-278.917454c27.885094-27.904537 55.724139-55.844889 83.60207-55.844889 27.904537 0 55.743582 27.941376 83.609233 55.844889l278.729166 278.917454-0.430812 0C924.197458 371.745908 956.66594 439.423287 956.66594 514.771369L956.66594 514.771369zM797.645181 407.491017L515.425517 124.80370300000004c-1.442862-1.467421-3.072989-3.075035-4.768607-4.832052-1.693572 1.693572-3.325745 3.288906-4.780887 4.832052L223.675804 407.491017c-30.610158 27.833929-47.515177 65.887616-47.515177 107.280352 0 79.808674 64.976874 144.784524 144.733359 144.784524 41.298592 0 79.397305-16.905018 107.186208-47.5162l82.57774-91.000574 82.597183 91.000574c27.777647 30.611182 65.887616 47.5162 107.173928 47.5162 79.750345 0 144.726196-64.976874 144.726196-144.784524C845.154217 473.378633 828.255339 435.324946 797.645181 407.491017L797.645181 407.491017z"  horiz-adv-x="1024" />

    
    <glyph glyph-name="pay" unicode="&#58982;" d="M845.102426 800.303027c0 42.17986-42.149142 95.65499-97.026069 95.65499l-470.661832 0c-64.921945 0-98.958276-60.096036-98.958276-96.057406l0-833.888049c0-46.688343 49.603549-94.012563 95.405145-94.012563l475.397633 0c89.927999 0 95.875141 97.017877 95.875141 97.017877S846.139694 614.355509 845.102426 800.303027L845.102426 800.303027 845.102426 800.303027zM512.002048-90.06853699999999c-23.021625 0-41.70372 19.08963-41.70372 42.680575 0 23.542819 18.681071 42.664192 41.70372 42.664192 23.029817 0 41.710888-19.121373 41.710888-42.664192C553.712936-70.97890700000005 535.031865-90.06853699999999 512.002048-90.06853699999999L512.002048-90.06853699999999 512.002048-90.06853699999999zM774.620394 17.434660000000008L249.376534 17.434660000000008 249.376534 786.825705l525.251027 0L774.620394 17.434660000000008 774.620394 17.434660000000008 774.620394 17.434660000000008zM774.620394 17.434660000000008M691.578506 584.759056l-35.899932 35.476014L515.411825 471.483814 368.326546 627.4539669999999l-35.9071-35.467822 121.638923-128.986839L351.001194 462.999306l0-37.271011 132.865588 0 0-72.375328-132.865588-0.159737 0-36.104724 132.865588 0 0-140.804326 56.270533 0 0 140.804326 132.85842-0.021503-0.046078 36.126227L540.137314 353.19322999999997l0 72.527898 132.812342 0 0 37.278178-96.170041 0L691.578506 584.759056 691.578506 584.759056zM691.578506 584.759056"  horiz-adv-x="1024" />

    
    <glyph glyph-name="qq1" unicode="&#58882;" d="M512.178 830.547c-246.739 0-446.697-199.996-446.697-446.736 0-246.74 199.958-446.723 446.697-446.723 246.714 0 446.697 199.984 446.697 446.723-0 246.739-199.984 446.736-446.697 446.736v0zM758.121 244.57c-11.522-10.753-31.334 0.974-50.375 27.329-8.263-22.325-19.041-42.881-31.538-61.357 26.92-9.623 44.216-24.611 44.216-41.547 0-29.229-51.709-52.89-115.556-52.89-37.903 0-71.365 8.289-92.511 21.17-20.94-12.882-54.609-21.17-92.485-21.17-63.847 0-115.581 23.66-115.581 52.89 0 16.732 17.322 31.923 44.242 41.547-12.678 18.45-23.25 39.032-31.538 61.357-19.041-26.15-38.826-38.082-50.374-27.329-15.782 14.807-9.803 67.132 13.652 116.736 5.389 11.342 11.137 21.53 17.091 30.384 3.284 144.233 98.284 260.006 214.816 260.006h0.385c116.531 0 211.532-115.581 214.79-260.006 5.954-8.854 11.753-19.041 17.117-30.384 23.275-49.604 29.433-101.928 13.652-116.736v0zM758.121 244.57z"  horiz-adv-x="1024" />

    
    <glyph glyph-name="mfk" unicode="&#58894;" d="M837.824-120H170.048s-34.24 24.768-56.128 60.736c-11.648 26.56-13.888 54.272-13.888 54.272V811.712l34.816 41.216 26.304 31.04h512.064l250.752-250.752V-28.799999999999955s0.192-27.264-20.032-63.232c-32-31.488-66.112-27.968-66.112-27.968z m-631.872 64h604.224l49.792 52.736V606.72l-213.248 213.248H190.848l-26.816-31.68v-775.296l41.92-68.992zM252.032 739.968h64v-216h-64zM364.736 739.968h64v-216h-64zM480 739.968h64v-216h-64zM256 299.96799999999996h164.032V416H284.032L256 384zM791.232 132.41600000000005l-175.552-0.832 0.64-116.032 136 0.768 27.776 32.128zM615.68 416v-116.032h180.352V382.01599999999996L752 416zM428.736 17.408000000000015l-1.856 116.032-180.288-2.88 1.344-81.92 44.48-33.344zM254.784 277.76h166.4v-107.52h-166.4zM456 416h128v-400.448h-128zM615.68 280h180.288v-112H615.68z"  horiz-adv-x="1024" />

    
    <glyph glyph-name="fma" unicode="&#58883;" d="M511.999996 584.3475599999999l111.303859 0c24.589948 0 44.521339 19.932413 44.521339 44.521339 0 24.589948-19.932413 44.521339-44.521339 44.521339L489.738816 673.3902390000001c-73.765759 0-133.56504-59.799281-133.56504-133.56504l0-400.695119c0-24.589948 19.932413-44.521339 44.521339-44.521339 24.589948 0 44.521339 19.932413 44.521339 44.521339L445.216455 250.43496000000005c0 36.884411 29.898108 66.78252 66.78252 66.78252l111.303859 0c24.589948 0 44.521339 19.932413 44.521339 44.521339 0 24.589948-19.932413 44.521339-44.521339 44.521339L511.999996 406.260159c-36.884411 0-66.78252 29.89913-66.78252 66.78252l0 44.521339C445.217476 554.449451 475.115585 584.3475599999999 511.999996 584.3475599999999zM511.999996 896c-282.768572 0-512-229.230407-512-512s229.231428-512 512-512 512 229.230407 512 512S794.768568 896 511.999996 896zM511.999996-38.956300000000056c-233.592761 0-422.9563 189.363539-422.9563 422.9563S278.407235 806.9563 511.999996 806.9563s422.9563-189.36456 422.9563-422.9563S745.591735-38.956300000000056 511.999996-38.956300000000056z"  horiz-adv-x="1024" />

    
    <glyph glyph-name="miaosha" unicode="&#58928;" d="M372.363636 896L186.181818 406.248727h279.272727L232.727273-128 837.818182 539.834182H465.454545L744.727273 896z"  horiz-adv-x="1024" />

    
    <glyph glyph-name="zhifubao" unicode="&#58886;" d="M587.9807 223.58498299999997c0 0-75.962726-60.797941-103.602239-76.727606-24.297408-13.9945-47.098009-23.293878-67.394278-29.760406-20.332216-6.448554-38.145123-10.505611-53.436724-12.186149s-27.951056-2.739986-37.998338-3.232265c-0.950608-0.45733-2.155842-0.711957-3.580755-0.711957l-11.474192 0c-26.288491 0-51.024257 3.104452-74.208296 9.334327-23.201014 6.211901-43.388443 15.418414-60.597235 27.604564-17.208792 12.185151-30.838826 27.494725-40.867136 45.891776-10.029309 18.415025-15.05295 39.808686-15.05295 64.177989 0.475304 21.028197 6.210902 40.156177 17.190818 57.363971 11.015863 17.208792 25.229043 31.788435 42.676486 43.753907s36.811078 21.028197 58.0949 27.257073c21.265849 6.210902 42.657513 8.824074 64.178988 7.873467 21.028197-0.949609 41.34244-3.452942 60.945724-7.509 19.602286-4.073034 38.382775-8.969861 56.287548-14.707456 17.921747-5.736597 34.892887-11.9465 50.915417-18.651678 16.020532-6.704179 31.185318-13.153732 45.525313-19.365632 5.735598-2.392495 11.709847-4.787986 17.920749-7.179483 6.211901-2.392495 12.661453-4.786988 19.366631-7.179483 13.865689 17.684096 25.557562 35.003725 35.129541 51.992839 9.555003 16.972138 17.447442 32.499393 23.659343 46.603733 6.229874 14.104339 11.014865 25.923027 14.359965 35.496004 3.343103 9.555003 5.479973 16.241209 6.448554 20.077589L321.237437 463.801104l0 34.418582 147.010652 0 0 79.57843L263.873467 577.7981159999999l0 34.418582 204.373625 0 0 64.544452c0 4.292712 2.374522 7.764626 7.16151 10.394773 4.785989 2.631146 10.285933 4.421523 16.496835 5.371132 7.179483 1.442886 15.2916 2.154843 24.370301 2.154843l55.208129 0 0-82.465201 210.092248 0 0-34.418582-210.092248 0 0-79.57843 166.959431 0c0.035947 0.236653 0.072893 0.475304 0.108841 0.710959l0-0.710959-0.108841 0c-3.380049-21.301796-9.060727-43.771881-17.098953-67.412252-6.686206-20.552893-16.605675-43.973586-29.761404-70.262077-13.152733-26.288491-30.472363-53.307912-51.99184-81.040289 0 0 164.565937-78.721685 338.283468-106.435089 28.846744 63.977283 44.922196 134.989262 44.922196 209.726783C1022.797761 664.8875439999999 794.089783 893.577549 512 893.577549 229.892244 893.577549 1.202239 664.8875439999999 1.202239 382.79876 1.202239 100.708977 229.892244-128 512-128c174.978684 0 329.406471 88.002091 421.462623 222.150584C839.926639 114.53772000000004 740.561194 155.80726700000002 587.9807 223.58498299999997L587.9807 223.58498299999997 587.9807 223.58498299999997zM186.430908 246.53037200000006c-1.91819-87.653601 97.244552-94.157075 112.536152-94.632378 50.549952-1.551727 91.363167 17.539308 123.13263 36.410664 31.787436 18.890329 83.634489 67.649903 85.570652 69.33144 1.900216 1.680538 3.818407 3.452942 5.718623 5.371132-13.865689 7.654787-27.493726 14.707456-40.867136 21.15601-13.372412 6.448554-81.386781 42.987031-141.730387 49.215906C216.520831 345.238779 187.016051 273.18532600000003 186.430908 246.53037200000006L186.430908 246.53037200000006 186.430908 246.53037200000006z"  horiz-adv-x="1024" />

    
    <glyph glyph-name="youjiantou" unicode="&#58887;" d="M512 864a480 480 0 1 1 0-960 480 480 0 1 1 0 960z m-31.872-712.064l-58.048 51.648 160 180.16-158.848 165.632 55.872 53.76 208.576-217.408-207.552-233.792z"  horiz-adv-x="1024" />

    
    <glyph glyph-name="kefu" unicode="&#58919;" d="M959.995 518.4C921.598 735.996 735.999 895.994 512.004 895.994c-224.004 0-409.596-166.399-448-377.593C25.605 486.399 0.006 428.797 0.006 371.199c0-76.799 44.799-166.398 115.199-166.398 63.997 0 63.997 70.398 63.997 166.398 0 89.599 0 159.999-44.797 166.4C172.801 710.396 326.404 838.396 512.004 838.396c185.592 0 339.194-128 377.592-294.401-44.799-12.798-44.799-76.796-44.799-166.394 0-63.422 0-107.986 12.451-139.923 0.114-0.293 0.41-0.569 0.346-0.876C821.333 65 716.8-6.398 614.398-32c-19.198 25.602-57.597 44.799-102.395 44.799-64.006 0-115.202-32-115.202-70.398 0-38.404 51.196-70.4 115.202-70.4 63.997 0 115.197 31.996 115.197 70.4C729.598-32 853.333 56.333 876.798 217.604c-0.04-0.275 0.399-0.388 0.608-0.572 6.575-5.83 18.984-5.83 31.389-5.83 70.399 0 115.199 89.6 115.199 166.4 0 51.195-25.6 108.797-63.999 140.798z m0 0"  horiz-adv-x="1024" />

    
    <glyph glyph-name="c-wb" unicode="&#58888;" d="M399.84 280.06399999999996c-22.816 0-43.808-18.784-44.161-39.488-0.288-17.664 14.56-31.105 34.464-31.105 23.681-0.032 43.488 17.793 43.647 39.232 0.16 18.272-14.112 31.361-33.952 31.361zM456.608 295.807c-6.783-3.328-13.312-8.224-17.984-14.144-0.992-1.28 5.952-8.833 11.584-16.928 7.232 7.936 13.76 12.512 16.16 18.688 1.056 2.656-8.64 12.96-9.76 12.384zM599.904 385.568c-11.008 6.88-22.848 12.64-34.943 17.535-40.48 16.192-82.944 20.992-126.112 17.216-65.28-5.664-125.567-24.896-172.448-73.312-54.368-56.096-47.008-127.103 16.992-171.616 43.328-30.081 92.512-40.416 144.48-39.168 9.44 0 18.912-0.736 28.289 0.129 59.168 5.664 113.664 23.616 158.816 63.648 65.984 58.4 59.36 138.816-15.072 185.568zM526.688 220.67200000000003c-22.464-34.048-62.24-54.72-105.44-54.944-54.464-0.352-95.328 30.24-102.56 77.824-1.6 9.728-1.153 20.416 1.056 29.952 10.976 46.688 43.296 72.768 87.296 84.544 43.456 11.52 83.872 4 115.488-30.528 26.176-28.576 27.232-72.128 4.16-106.848zM512.032 896c-282.784 0-512.032-229.247-512.032-512s229.247-512 512-512c282.751 0 512 229.247 512 512 0 282.751-229.216 512-511.968 512zM756.192 231.13599999999997c-43.744-67.296-110.944-100.672-186.016-119.072-36.32-8.96-74.24-11.712-93.952-14.721-93.088 2.304-165.088 16.064-230.015 56.416-81.824 50.848-105.664 127.04-62.88 213.44 45.951 92.672 117.44 161.216 211.264 205.28 17.408 8.16 37.216 12.8 56.32 15.168 39.36 4.896 62.335-17.44 61.344-57.056-0.224-8.672-2.177-17.216-2.687-25.952-0.383-7.456 0.16-15.04 0.352-22.528 7.648 1.248 15.36 2.048 22.848 3.713 30.337 6.496 60.352 17.344 90.912 18.976 53.056 2.816 76.832-29.313 60.704-79.712-6.944-21.472-1.76-28.704 18.305-35.904 75.456-27.2 97.184-90.912 53.504-158.048zM716.608 513.665c-12.48 15.872-40.8 19.552-49.76 19.648-13.248 0.096-23.935 10.944-23.808 24.16 0.096 13.185 10.816 23.776 23.935 23.776h0.192c5.856 0 58.368-1.504 87.104-37.92 11.393-14.432 23.072-40.096 13.824-80.032-2.56-11.137-12.448-18.624-23.36-18.624-1.76 0-3.552 0.224-5.376 0.672-12.929 2.976-20.96 15.872-17.984 28.736 4.032 17.472 2.464 30.432-4.768 39.584zM857.696 435.2c-1.888-11.776-12.032-20.288-23.681-20.288-1.184 0-2.496 0.16-3.744 0.352-13.056 2.016-21.984 14.304-19.968 27.392 8.896 56.608-0.16 100.64-27.04 130.72-46.784 52.416-132.544 49.312-133.408 49.312-13.376-0.544-24.447 9.696-25.024 22.88-0.544 13.216 9.76 24.416 22.944 25.024 4.448 0.16 109.441 3.84 171.264-65.248 36.864-41.376 49.856-98.624 38.656-170.144z"  horiz-adv-x="1024" />

    
    <glyph glyph-name="change" unicode="&#58889;" d="M427.68941325 233.44607914000005l-36.1312464-16.05978013 32.11630137-68.24754775C327.32230526 185.26999765999994 263.08644366 277.60721557 263.08644366 381.99252749000004c0 116.43014698 80.29564172 216.80051386 192.70758481 244.90187019l-8.02989007 40.14293252C315.27747017 634.9210288500001 222.93699336 518.49414075 222.93699336 386.00421363c0-116.4268881 68.25080663-216.7939961 172.63611854-264.97333645l-52.19102652-20.07472516L351.41197544 60.813219499999946l132.48666824 48.17608147-56.20923043 124.45677816zM680.6211735 707.19003938l-132.48666823-48.17608146 56.20271266-124.46003705 36.13450527 16.05978012-28.10135633 60.22417544c88.32227289-40.1494503 148.54644835-128.47824097 148.54644835-228.84209006 0-116.43014698-80.29564172-216.79725498-192.7075848-244.90187019l8.02663118-40.1494503c132.48666823 32.11956024 224.82388615 148.54644835 224.82388616 281.03311657 0 116.43014698-68.24428886 216.80051386-172.63285966 264.97659535l64.23586161 20.06820738-12.04157621 44.1676542z"  horiz-adv-x="1024" />

    
    <glyph glyph-name="my" unicode="&#58950;" d="M400.896 388.608C301.056 457.728 276.48 594.432 345.6 694.2719999999999s205.824 124.416 305.152 55.296 124.416-205.824 55.296-305.152c-16.896-24.576-38.912-45.568-64-61.44 156.16-53.76 267.776-201.728 267.776-375.808 0-15.36-12.288-27.648-27.648-27.648-15.36 0-27.648 12.288-27.648 27.648 0 189.44-153.6 343.04-343.04 343.04s-343.04-153.6-343.04-343.04c0-15.36-12.288-27.648-27.648-27.648s-27.648 12.288-27.648 27.648c1.024 180.736 121.856 333.312 287.744 381.44z m124.928 15.872c90.624 0 164.352 73.728 164.352 164.352s-73.728 164.352-164.352 164.352-164.864-73.216-164.864-163.84S434.688 404.48 525.824 404.48z"  horiz-adv-x="1024" />

    
    <glyph glyph-name="qiye" unicode="&#59477;" d="M416 281.6H256c-19.2 0-32-12.8-32-32s12.8-32 32-32h160c19.2 0 32 12.8 32 32s-12.8 32-32 32z m0 256H256c-19.2 0-32-12.8-32-32s12.8-32 32-32h160c19.2 0 32 12.8 32 32s-12.8 32-32 32zM992-6.4h-64V435.2c0 38.4-28.8 73.6-67.2 83.2L576 592V761.6c0 22.4-9.6 44.8-28.8 57.6C524.8 835.2 492.8 841.6 460.8 832L166.4 758.4c-41.6-9.6-70.4-48-70.4-89.6v-678.4h-64c-19.2 0-32-12.8-32-32s12.8-32 32-32h960c19.2 0 32 12.8 32 32s-12.8 35.2-32 35.2z m-480 0H160V668.8c0 12.8 9.6 25.6 22.4 28.8l294.4 76.8c16 3.2 25.6 0 32-3.2 3.2-3.2 3.2-6.4 3.2-9.6v-768z m352 0H576V528l268.8-70.4c9.6-3.2 19.2-16 19.2-22.4v-441.6zM768 281.6h-96c-19.2 0-32-12.8-32-32s12.8-32 32-32H768c19.2 0 32 12.8 32 32s-12.8 32-32 32z"  horiz-adv-x="1024" />

    
    <glyph glyph-name="shouji" unicode="&#58890;" d="M768-128H256c-27.473171 0-49.95122 22.478049-49.95122 49.95122V846.04878c0 27.473171 22.478049 49.95122 49.95122 49.95122h512c27.473171 0 49.95122-22.478049 49.95122-49.95122v-924.09756c0-27.473171-22.478049-49.95122-49.95122-49.95122zM268.487805-65.560976h487.02439V833.560976H268.487805v-899.121952zM218.536585 871.02439h586.92683v-137.365853H218.536585zM218.536585 34.341463h586.92683v-137.365853H218.536585zM518.243902-78.04878c21.229268 0 37.463415 16.234146 37.463415 37.463414s-16.234146 37.463415-37.463415 37.463415-37.463415-16.234146-37.463414-37.463415 16.234146-37.463415 37.463414-37.463414z"  horiz-adv-x="1024" />

    
    <glyph glyph-name="exchange" unicode="&#58891;" d="M511.9455-62.71280899999999c-247.065724 0-448.054313 200.987589-448.054313 448.060313 0 247.065724 200.987589 448.054313 448.054313 448.054313 247.072724 0 448.060313-200.987589 448.060313-448.054313C960.005813 138.27578000000005 759.017224-62.71280899999999 511.9455-62.71280899999999L511.9455-62.71280899999999zM511.9455 769.106628c-211.60762 0-383.758124-172.150504-383.758124-383.758124 0-211.58062 172.150504-383.765124 383.758124-383.765124 211.58062 0 383.765124 172.184504 383.765124 383.765124C895.709624 596.956124 723.52512 769.106628 511.9455 769.106628L511.9455 769.106628zM511.9455 769.106628M726.94813 504.174852c-12.545037 12.448036-32.837096 12.322036-45.249133-0.254001L448.388314 268.05215999999996l-103.280303 106.122311c-12.350036 12.707037-32.612096 12.932038-45.249133 0.640002-12.678037-12.322036-12.965038-32.612096-0.640002-45.251133l126.032369-129.522379c0.064-0.093 0.190001-0.093 0.254001-0.190001 0.064-0.064 0.097-0.191001 0.161-0.254001 2.017006-1.988006 4.512013-3.204009 6.88102-4.547013 1.250004-0.674002 2.241007-1.793005 3.52001-2.305007 3.873011-1.601005 8.000023-2.398007 12.096035-2.398007 4.063012 0 8.131024 0.796002 11.969035 2.334007 1.250004 0.513002 2.208006 1.539005 3.39401 2.178006 2.398007 1.344004 4.898014 2.525007 6.94502 4.542013 0.063 0.064 0.098 0.196001 0.190001 0.259001 0.064 0.094 0.161 0.128 0.259001 0.191001l256.253751 259.041759C739.626167 471.500756 739.494166 491.757816 726.94813 504.174852L726.94813 504.174852zM726.94813 504.174852"  horiz-adv-x="1025" />

    
    <glyph glyph-name="c-wx" unicode="&#58892;" d="M512 896c282.768 0 512-229.232 512-512 0-282.768-229.232-512-512-512C229.232-128 0 101.23199999999997 0 384 0 666.768 229.232 896 512 896z m140.272-400.128c-116.912 0-211.696-87.696-211.696-195.824 0-108.128 94.8-195.84 211.68-195.84 22.16 0 44.16 3.264 65.344 9.648l77.36-32.864c8.8-3.632 21.296 3.072 21.296 14.112l0.32 81.504C846.256 210.27200000000005 864 253.18399999999997 864 300c0.016 108.176-94.72 195.872-211.728 195.872zM413.36 688C273.392 688 160 583.04 160 453.632c0-56 21.296-107.36 56.672-147.664l0.4-97.536c0-13.296 15.04-21.376 25.472-17.008l92.576 39.296c24.688-7.44 54.432-11.52 81.76-11.52 1.184 0-13.6 37.376-13.6 81.2 0 131.2 114.976 235.648 239.152 235.648h-0.016c0.704 0 8.224-0.544 8.88-0.544C610.752 624.336 526.624 688 413.36 688z m167.136-279.936c15.792 0 28.608-13.184 28.608-29.392s-12.832-29.408-28.576-29.408l-0.032 0.032c-15.792 0-28.592 13.168-28.592 29.376 0 16.208 12.8 29.392 28.592 29.392z m145.376 0c15.76 0 28.608-13.184 28.608-29.392s-12.736-29.408-28.576-29.408l-0.032 0.032c-15.696 0-28.592 13.168-28.592 29.376 0 16.208 12.848 29.392 28.592 29.392z m-400.64 174.88c18.848 0 34.208-15.776 34.208-35.168 0-19.376-15.296-35.2-34.176-35.2l-0.016 0.016c-18.928 0-34.24 15.76-34.24 35.2 0 19.408 15.408 35.168 34.24 35.168z m174.048 0.016c18.912 0 34.176-15.792 34.176-35.184 0-19.376-15.312-35.184-34.176-35.184-18.88 0-34.192 15.76-34.192 35.2 0 18.56 14.032 33.776 31.76 35.072l2.432 0.096z"  horiz-adv-x="1024" />

    
    <glyph glyph-name="gwc" unicode="&#58881;" d="M370.050321 5.5795100000000275c0-19.998815 8.236506-39.863967 22.365004-54.006915 14.142948-14.135723 34.015325-22.361391 54.006915-22.361391 19.99159 0 39.863967 8.225669 54.003302 22.361391 14.139335 14.142948 22.368616 34.0081 22.368616 54.006915 0 19.995202-8.229281 39.860354-22.368616 53.99969-14.139335 14.142948-34.011712 22.365004-54.003302 22.365004-19.99159 0-39.863967-8.222056-54.006915-22.365004C378.283215 45.439865000000054 370.050321 25.574711999999977 370.050321 5.5795100000000275L370.050321 5.5795100000000275zM370.050321 5.5795100000000275M723.16523 5.5795100000000275c0-19.998815 8.225669-39.863967 22.361391-54.006915 14.139335-14.135723 34.011712-22.361391 54.006915-22.361391s39.863967 8.225669 54.003302 22.361391c14.139335 14.142948 22.365004 34.0081 22.365004 54.006915 0 19.995202-8.225669 39.860354-22.365004 53.99969-14.139335 14.142948-34.0081 22.365004-54.003302 22.365004s-39.867579-8.222056-54.006915-22.365004C731.390898 45.439865000000054 723.16523 25.574711999999977 723.16523 5.5795100000000275L723.16523 5.5795100000000275zM723.16523 5.5795100000000275M927.842405 141.71306000000004L311.361603 141.71306000000004c-10.068045 0-18.831976 6.860143-21.252353 16.631962L158.447979 690.300487 36.518789 690.300487c-12.091046 0-21.898991 9.807945-21.898991 21.902604 0 12.091046 9.807945 21.898991 21.898991 21.898991l139.066902 0c10.068045 0 18.839201-6.863755 21.259578-16.635575l131.661271-531.94824 579.976462 0 54.21644 438.062908L382.538743 623.581175c-12.094659 0-21.898991 9.804332-21.898991 21.902604 0 12.098271 9.804332 21.898991 21.898991 21.898991l604.931631 0c6.274917 0 12.253609-2.694927 16.415212-7.398405 4.147153-4.703478 6.090679-10.963946 5.324829-17.1919l-59.631581-481.868115C948.216919 149.949566 938.896663 141.71306000000004 927.842405 141.71306000000004L927.842405 141.71306000000004zM927.842405 141.71306000000004"  horiz-adv-x="1024" />

    
    <glyph glyph-name="search" unicode="&#58953;" d="M172.4 418.8h14c0-161 133-294 294-294s294 133 294 294-133 294-294 294-294-133-294-294h-14zM942.2 34c21-21 21-56 0-77s-56-21-77 0l-140 140c-70-56-154-84-245-84-224 0-405.8 182-405.8 405.8 0 224 182 405.8 405.8 405.8 224 0 405.8-182 405.8-405.8 0-91-28-175-84-245L942.2 34z m0 0"  horiz-adv-x="1024" />

    
    <glyph glyph-name="weizhi" unicode="&#58917;" d="M512 304.9c-89.6 0-158.1 68.5-158.1 158.1S422.4 621.2 512 621.2s158.1-68.5 158.1-158.1S601.6 304.9 512 304.9z m0 52.7c58 0 105.4 47.4 105.4 105.4S570 568.5 512 568.5 406.6 521 406.6 463.1 454 357.6 512 357.6zM512-64C264.2 136.3 143 310.2 143 463.1 143 689.7 317 832 512 832s369-142.3 369-368.9c0-152.9-121.2-326.8-369-527.1z m316.3 527.1c0 184.5-137.1 316.2-316.3 316.2S195.7 647.5 195.7 463.1c0-126.5 105.4-279.3 316.3-458.5 210.9 179.1 316.3 332 316.3 458.5z"  horiz-adv-x="1024" />

    
    <glyph glyph-name="tian" unicode="&#58884;" d="M188.783 701.437c67.981 67.991 155.676 112.102 252.56 126.017 118.413 17.023 236.41-13.172 332.18-84.883C869.31 670.805 931.43 566.044 948.45 447.63c35.117-244.617-135.326-472.08-379.79-507.219-102.508-14.704-207.619 6.783-295.991 60.432-15.098 9.189-19.912 28.882-10.744 43.98 9.255 14.965 28.86 19.91 43.979 10.721 75.681-45.991 165.783-64.37 253.675-51.768 209.5 30.063 355.57 225.056 325.506 434.754-14.572 101.522-67.827 191.273-149.942 252.757-82.092 61.512-183.22 87.33-284.722 72.715-209.717-30.053-355.744-225.09-325.616-434.698 7.899-54.876 26.934-106.162 56.712-152.372 9.54-14.922 5.186-34.788-9.584-44.24-14.855-9.583-34.678-5.295-44.24 9.539-34.746 54.088-56.997 113.907-66.252 177.97-17 118.415 13.15 236.48 84.96 332.269a448.524 448.524 0 0 0 42.381 48.966zM332.71 198.336V539.67h-53.542c-13.386 0-20.079 7.426-20.079 22.31 0 11.886 6.694 18.579 20.079 20.078h89.237c10.388 0 15.617-4.462 15.617-13.386v-370.336c-1.5-14.884-10.423-22.309-26.772-22.309-16.383 0.002-24.54 7.426-24.54 22.31zM569.189 539.67l-15.616-111.547c14.849 7.425 32.696 11.887 53.542 13.386 62.465-7.46 97.394-49.08 104.853-124.933-4.46-92.235-49.079-139.084-133.856-140.549-62.465 1.465-100.391 23.042-113.777 64.698 0 11.887 5.926 18.579 17.847 20.078 4.462 0 12.619-5.228 24.54-15.617 23.774-17.847 48.313-26.771 73.62-26.771 47.582 2.963 73.622 32.697 78.083 89.237-2.998 55.007-26.771 84.01-71.39 87.007-16.383 0-34.23-3.73-53.541-11.154-7.46-2.998-12.653-4.463-15.618-4.463-11.921 0-17.847 5.194-17.847 15.617 0 4.461 1.465 15.616 4.462 33.464L526.8 568.672c-1.5 8.924 4.46 13.386 17.847 13.386h140.55c13.384-1.5 20.81-8.192 22.308-20.078-1.499-14.884-8.924-22.31-22.309-22.31H569.19z"  horiz-adv-x="1024" />

    
    <glyph glyph-name="weixin" unicode="&#58885;" d="M707.2 554.048c6.816 0 13.568-0.288 20.192-0.64-27.776 151.488-179.008 267.232-361.376 267.232C163.936 820.672 0 678.496 0 503.296c0-99.616 52.832-188.416 135.296-246.528 13.984-9.92-44.896-106.688-29.472-114.56 20.416-10.656 115.936 68.416 138.752 61.44 37.92-11.616 78.784-17.856 121.376-17.856 5.6 0 11.264 0 16.8 0.256-7.136 23.808-11.008 48.832-11.008 74.72C371.808 422.496 522.24 554.048 707.2 554.048zM509.152 657.6c25.824 0 46.784-20.896 46.784-46.72 0-25.76-20.96-46.72-46.784-46.72-25.792 0-46.688 20.96-46.688 46.72C462.464 636.704 483.36 657.6 509.152 657.6zM222.304 564.16c-25.952 0-46.816 20.96-46.816 46.72 0 25.824 20.896 46.72 46.816 46.72 25.728 0 46.624-20.896 46.624-46.72C268.928 585.12 248.032 564.16 222.304 564.16zM390.464 260.768c0-151.904 141.888-274.88 316.704-274.88 36.928 0 72.224 5.472 105.152 15.456 19.776 6.08 102.272-62.24 120.096-53.184 13.312 6.944-37.632 90.688-25.568 99.2 71.456 50.304 117.12 127.232 117.12 213.408 0 151.616-141.824 274.624-316.8 274.624C532.352 535.392 390.464 412.416 390.464 260.768zM791.264 353.888c0 22.272 18.112 40.416 40.448 40.416s40.352-18.112 40.352-40.416c0-22.4-18.016-40.384-40.352-40.384S791.264 331.456 791.264 353.888zM542.976 353.888c0 22.272 17.984 40.416 40.384 40.416 22.272 0 40.416-18.112 40.416-40.416 0-22.4-18.112-40.384-40.416-40.384C560.96 313.504 542.976 331.456 542.976 353.888z"  horiz-adv-x="1024" />

    
    <glyph glyph-name="sevenday" unicode="&#58880;" d="M953.235 584c0 0-0.070-0.19-0.195-0.542l-0.077 0.542-73.085-151.585 77.527 8.919c5.582-64.583-3.538-130.081-27.468-192.11-20.96-54.332-51.929-102.927-92.044-144.437-38.753-40.099-84.374-71.943-135.594-94.646-51.221-22.702-105.453-35.118-161.189-36.899-57.697-1.845-114.5 7.848-168.832 28.807-54.332 20.96-102.928 51.929-144.438 92.044-40.098 38.753-71.943 84.374-94.646 135.594-22.702 51.221-35.118 105.453-36.899 161.189-1.844 57.696 7.848 114.5 28.808 168.832 20.96 54.332 51.929 102.928 92.043 144.438 38.753 40.098 84.375 71.943 135.594 94.646 51.221 22.702 105.454 35.118 161.189 36.899 57.696 1.844 114.5-7.848 168.832-28.808 49.39-19.054 94.205-46.496 133.2-81.567l20.529 22.826c-41.785 37.579-89.789 66.979-142.68 87.383-58.186 22.447-119.037 32.827-180.862 30.85-59.707-1.909-117.795-15.204-172.648-39.517-54.853-24.313-103.715-58.422-145.23-101.377-42.987-44.479-76.164-96.536-98.611-154.722-22.445-58.187-32.825-119.038-30.848-180.863 1.908-59.708 15.204-117.795 39.517-172.648 24.313-54.853 58.422-103.716 101.377-145.231 44.479-42.987 96.536-76.164 154.722-98.611 58.186-22.447 119.037-32.827 180.862-30.85 59.708 1.908 117.795 15.204 172.648 39.518 54.853 24.313 103.716 58.421 145.23 101.377 42.987 44.479 76.164 96.536 98.611 154.722 43.292 112.219 41.394 235.036-5.344 345.826zM521.193 200.475c10.339 119.021 57.553 232.886 141.672 341.565v60.162h-294.988v-67.925h205.715c-77.628-104.799-124.205-216.086-139.731-333.802h87.333z"  horiz-adv-x="1024" />

    
    <glyph glyph-name="weibo" unicode="&#59036;" d="M713.007 395.72c-11.263 3.397-18.982 5.71-13.086 20.622 12.769 32.36 14.104 60.291 0.237 80.199-25.962 37.37-97.026 35.348-178.468 1.018 0 0.04-25.572-11.275-19.042 9.161 12.531 40.556 10.641 74.528-8.856 94.145-44.19 44.521-161.7-1.679-262.461-103.134-75.459-76.009-119.281-156.552-119.281-226.203 0-133.232 169.651-214.238 335.621-214.238 217.576 0 362.309 127.298 362.309 228.383 0 61.057-51.077 95.718-96.973 110.047zM448.114 105.05c-132.439-13.166-246.756 47.126-255.362 134.688-8.599 87.549 91.825 169.202 224.245 182.394 132.452 13.18 246.782-47.098 255.362-134.634 8.579-87.602-91.779-169.255-224.245-182.448z m409.375 534.479c-52.545 58.665-130.048 81.032-201.574 65.711h-0.04c-16.55-3.569-27.099-19.96-23.556-36.603 3.529-16.656 19.802-27.297 36.364-23.741 50.88 10.879 105.963-5.036 143.307-46.702 37.33-41.679 47.456-98.521 31.474-148.342l0.014-0.013c-5.209-16.233 3.608-33.589 19.749-38.837 16.061-5.235 33.338 3.622 38.56 19.815l0.014 0.119c22.418 70.099 8.246 149.98-44.312 208.593m-80.688-73.325c-25.564 28.566-63.331 39.419-98.189 31.963-14.25-3.067-23.317-17.185-20.277-31.54 3.054-14.303 17.065-23.49 31.275-20.371v-0.04c17.039 3.635 35.52-1.652 48.012-15.598 12.518-13.973 15.889-33.008 10.522-49.716h0.026c-4.469-13.933 3.105-28.923 16.959-33.443 13.867-4.468 28.725 3.146 33.192 17.118 10.959 34.144 4.113 73.061-21.52 101.627M461.346 354.741c-63.021 16.511-134.244-15.122-161.621-71.038-27.878-57.039-0.925-120.345 62.75-141.046 65.949-21.414 143.689 11.408 170.729 72.969 26.65 60.173-6.636 122.143-71.858 139.115z m-48.117-145.645c-12.816-20.582-40.251-29.609-60.906-20.105-20.364 9.332-26.372 33.232-13.563 53.312 12.657 19.987 39.168 28.884 59.67 20.226 20.748-8.912 27.377-32.653 14.799-53.433z m42.202 54.541c-4.64-7.971-14.878-11.817-22.901-8.486-7.885 3.265-10.357 12.188-5.876 20.027 4.613 7.798 14.455 11.593 22.32 8.445 7.997-2.934 10.872-11.962 6.457-19.986z m0 0"  horiz-adv-x="1024" />

    
    <glyph glyph-name="gift" unicode="&#58925;" d="M864.329 638.146l-0.004 0.004H155.67c-51.076 0-92.628-41.5-92.628-92.51v-68.92c0-43.08 29.631-79.374 69.61-89.62a82.706 82.706 0 0 1-4.392-26.53v-339.111c0-23.562 10.172-46.272 27.904-62.289 16.24-14.673 37.416-22.749 59.625-22.749h590.464c22.209 0 43.384 8.077 59.627 22.746 17.734 16.021 27.908 38.727 27.908 62.293V360.57000000000005c0 9.262-1.581 18.39-4.566 27.032 39.023 10.891 67.734 46.713 67.734 89.114v68.92c0 51.011-41.552 92.51-92.627 92.51zM480.128-1.82000000000005H215.785c-14.24 0-25.777 10.424-25.777 23.284v339.11c0 12.861 11.543 23.283 25.777 23.283h264.343v-385.677z m0 449.52v-0.003H155.666c-16.096 0-29.145 12.994-29.145 29.03v68.916c0 16.032 13.05 29.027 29.145 29.027h324.462v-126.97zM832.03 21.46799999999996v-0.004c0-12.86-11.537-23.284-25.778-23.284h-264V383.85699999999997h264c14.233 0 25.777-10.426 25.777-23.283v-339.107z m61.438 455.254c0-16.031-13.046-29.025-29.144-29.025H542.253V574.664h322.07c16.1 0 29.145-12.993 29.145-29.025v-68.918zM292.067 638.126l94 91.732 86.607-88.75-3.056-2.982h83.006l94 91.732 86.607-88.75-3.055-2.982h60.986c0.797 15.587-4.648 31.45-16.408 43.5l-86.61 88.75c-22.376 22.931-59.108 23.38-82.037 1.002l-91.942-89.722-86.578 88.72c-22.377 22.931-59.108 23.38-82.038 1.002l-96.075-93.756c-11.126-10.858-16.944-25.095-17.445-39.496h60.038z"  horiz-adv-x="1024" />

    
    <glyph glyph-name="weixiu" unicode="&#58938;" d="M985.712587 91.306667L618.107253 458.912A317.226667 317.226667 0 0 1 640.00592 580.661333C637.200587 754.784 493.872587 895.466667 320.00592 895.466667h-2.613333a319.936 319.936 0 0 1-90.613334-13.802667 58.666667 58.666667 0 0 1-24.309333-97.589333l98.005333-98.005334a64 64 0 0 0-90.506666-90.506666l-98.293334 98.293333a58.666667 58.666667 0 0 1-97.6-24.309333A320.064 320.064 0 0 1 0.00592 573.728c0.448-84.341333 33.642667-163.861333 93.461333-223.914667s139.210667-93.557333 223.552-94.325333h3.050667A317.002667 317.002667 0 0 1 437.339253 277.653333l367.36-367.36a128 128 0 1 1 181.013334 181.013334z m-45.248-135.765334a64.288 64.288 0 0 0-90.506667 0L474.331253 331.157333a32.181333 32.181333 0 0 1-3.882666 3.306667 32 32 0 0 1-39.765334 10.069333A256.362667 256.362667 0 0 0 64.00592 574.069333a256.576 256.576 0 0 0 8.778667 68.128l91.914666-91.904a128 128 0 0 1 181.013334 181.013334l-91.594667 91.605333a256.416 256.416 0 0 0 63.776 8.533333C457.92592 832.64 573.744587 719.626667 576.00592 579.648a253.653333 253.653333 0 0 0-24.757333-114.197333 32 32 0 0 1 10.24-39.776 32.202667 32.202667 0 0 1 3.392-4l375.584-375.616a64.074667 64.074667 0 0 0 0-90.517334z"  horiz-adv-x="1024" />

    


  </font>
</defs>
</svg>
